<svg xmlns="http://www.w3.org/2000/svg" version="1.1" xmlns:xlink="http://www.w3.org/1999/xlink" xmlns:svgjs="http://svgjs.dev/svgjs" width="1000" height="1000"><g clip-path="url(#SvgjsClipPath1018)"><rect width="1000" height="1000" fill="#ffffff"></rect><g transform="matrix(8.333333333333334,0,0,8.333333333333334,150,150)"><svg xmlns="http://www.w3.org/2000/svg" version="1.1" xmlns:xlink="http://www.w3.org/1999/xlink" xmlns:svgjs="http://svgjs.dev/svgjs" width="84" height="84"><svg width="84" height="84" viewBox="0 0 84 84" fill="none" xmlns="http://www.w3.org/2000/svg">
<rect width="84" height="84" fill="white"></rect>
<path d="M64.9688 26.0938V30.8438H20.0625V26.0938H64.9688ZM64.9688 33.75V38.5H20.0625V33.75H64.9688ZM43.0312 46.1562H30.875V41.25H43.0312C45.3854 41.25 47.2917 40.875 48.75 40.125C50.2083 39.375 51.2708 38.3333 51.9375 37C52.625 35.6667 52.9688 34.1458 52.9688 32.4375C52.9688 30.875 52.625 29.4062 51.9375 28.0312C51.2708 26.6562 50.2083 25.5521 48.75 24.7188C47.2917 23.8646 45.3854 23.4375 43.0312 23.4375H32.2812V64H26.25V18.5H43.0312C46.4688 18.5 49.375 19.0938 51.75 20.2812C54.125 21.4688 55.9271 23.1146 57.1562 25.2188C58.3854 27.3021 59 29.6875 59 32.375C59 35.2917 58.3854 37.7812 57.1562 39.8438C55.9271 41.9062 54.125 43.4792 51.75 44.5625C49.375 45.625 46.4688 46.1562 43.0312 46.1562Z" fill="black"></path>
</svg></svg></g></g><defs><clipPath id="SvgjsClipPath1018"><rect width="1000" height="1000" x="0" y="0" rx="500" ry="500"></rect></clipPath></defs></svg>